
<svg width="120" height="120" viewBox="0 0 100 100" xmlns="http://www.w3.org/2000/svg">
  <!-- Background with rounded corners -->
  <rect x="5" y="5" width="90" height="90" rx="22"
        fill="#5B4BFF"/>
  
  <!-- Wrench Icon -->
  <path d="M62 28
           a14 14 0 0 0 -14 14
           c0 2 0.4 3.9 1.2 5.6
           L32 65.8
           a6 6 0 1 0 8.5 8.5
           L57.8 57
           c1.7 0.8 3.6 1.2 5.6 1.2
           a14 14 0 0 0 10.4 -23.4
           l-8 8
           l-5 -1
           l-1 -5
           l8 -8
           A13.9 13.9 0 0 0 62 28z"
        fill="white"/>
</svg>